<?xml version="1.0" encoding="UTF-8"?>
<svg id="_레이어_1" data-name="레이어_1" xmlns="http://www.w3.org/2000/svg" version="1.1" xmlns:xlink="http://www.w3.org/1999/xlink" viewBox="0 0 61 61">
  <!-- Generator: Adobe Illustrator 29.8.3, SVG Export Plug-In . SVG Version: 2.1.1 Build 3)  -->
  <defs>
    <style>
      .st0 {
        fill: #4c66ae;
      }

      .st1, .st2 {
        fill: none;
      }

      .st2 {
        stroke: #4c66ae;
        stroke-linecap: round;
        stroke-linejoin: round;
        stroke-width: 2px;
      }

      .st3 {
        clip-path: url(#clippath);
      }
    </style>
    <clipPath id="clippath">
      <rect class="st1" y="3" width="61" height="55"/>
    </clipPath>
  </defs>
  <g class="st3">
    <g>
      <path class="st2" d="M54.7,9.5h-21.2c-2.9,0-5.3,2.4-5.3,5.5v36.5c0,3,2.4,5.5,5.3,5.5h21.2c2.9,0,5.3-2.4,5.3-5.5V15c0-3-2.4-5.5-5.3-5.5Z"/>
      <path class="st2" d="M47.6,11.4h-7.1"/>
      <path class="st0" d="M44.1,53.3c1,0,1.8-.8,1.8-1.8s-.8-1.8-1.8-1.8-1.8.8-1.8,1.8.8,1.8,1.8,1.8Z"/>
      <path class="st0" d="M38.8,10.5h10.6c0,1-.8,1.8-1.8,1.8h-7.1c-1,0-1.8-.8-1.8-1.8h0Z"/>
      <path class="st2" d="M28,44.2H6.3c-2.9,0-5.3-2.4-5.3-5.5V9.5c0-3,2.4-5.5,5.3-5.5h35.3c2.9,0,5.3,2.4,5.3,5.5"/>
      <path class="st2" d="M28.2,13.2H1v-3.6c0-3,2.4-5.5,5.3-5.5h35.3c2.9,0,5.3,2.4,5.3,5.5"/>
      <path class="st0" d="M7.2,9.5c.5,0,.9-.4.9-.9s-.4-.9-.9-.9-.9.4-.9.9.4.9.9.9Z"/>
      <path class="st0" d="M10.8,9.5c.5,0,.9-.4.9-.9s-.4-.9-.9-.9-.9.4-.9.9.4.9.9.9Z"/>
      <path class="st0" d="M14.3,9.5c.5,0,.9-.4.9-.9s-.4-.9-.9-.9-.9.4-.9.9.4.9.9.9Z"/>
    </g>
  </g>
  <rect class="st1" width="61" height="61"/>
</svg>